<svg width="800" height="600" xmlns="http://www.w3.org/2000/svg">
      <defs>
        <linearGradient id="skyGradient" x1="0%" y1="0%" x2="0%" y2="100%">
          <stop
            offset="0%"
            style="stop-color: rgb(135, 206, 235); stop-opacity: 1"
          />
          <stop
            offset="100%"
            style="stop-color: rgb(25, 25, 112); stop-opacity: 1"
          />
        </linearGradient>

        <linearGradient id="nightGradient" x1="0%" y1="0%" x2="0%" y2="100%">
          <stop offset="0%" style="stop-color: #001f3f; stop-opacity: 1" />
          <stop offset="100%" style="stop-color: #001a35; stop-opacity: 1" />
        </linearGradient>

        <!-- sky day -->
        <g id="skyDay">
          <rect width="100%" height="100%" fill="url(#skyGradient)" />
          <circle cx="700" cy="110" r="50" fill="yellow" />
        </g>
        <!-- sky night -->
        <g id="skyNight">
          <rect width="100%" height="100%" fill="url(#nightGradient)" />
          <circle cx="700" cy="110" r="50" fill="bisque" />
          <circle cx="720" cy="85" r="10" fill="#999999" />
          <circle cx="677" cy="98" r="8" fill="#999999" />
          <circle cx="710" cy="130" r="12" fill="#999999" />
        </g>
        <!-- tree -->
        <g id="tree">
          <!-- Tree trunk using <rect> -->
          <rect x="0" y="60" width="20" height="60" fill="#8B4513" />
          <!-- Tree canopy using <circle> -->
          <circle cx="10" cy="60" r="30" fill="#228B22" />
        </g>

        <g id="lake">
          <path
            d="M0 520 C 40 480, 80 520, 120 500 S 200 520, 240 500 S 320 520, 360 500 S 440 520, 480 500 S 560 520, 600 500 S 680 480, 720 520 S 760 480, 800 520 L800 600 L0 600 Z"
            fill="#ADD8E6"
          />
          <!-- Wavy lines representing water movement -->
          <path
            d="M0 560 Q 50 490, 100 530 T 200 540 T 300 520 T 400 550 T 490 540 T 600 520 T 700 560 T950 480"
            stroke="#FFFFFF"
            stroke-width="8"
            fill="none"
          />
        </g>
      </defs>
      <!-- Sky -->
      <use id="dayNight" href="#skyDay" />
      <!-- Mountain -->
      <path
        d="M0 350 L130 183 L210 300 L320 200 L400 300 L500 160 L600 260 L700 150 L800 350 "
        fill="rgba(105,47,5,0.603)"
        stroke="white"
        stroke-width="7"
      />
      <!-- Sand -->
      <rect
        x="0"
        y="350"
        width="800"
        height="200"
        fill="rgba(201,176,135,0.863)"
      />
      <!-- Trees -->
      <use href="#tree" x="60" y="365" />
      <use href="#tree" x="200" y="280" />
      <use href="#tree" x="370" y="300" />
      <use href="#tree" x="520" y="350" />
      <use href="#tree" x="670" y="310" />
      <!-- lake -->
      <use href="#lake" />
    </svg>